<?xml version="1.0"?>
    
<!--********* Copyright (c) 2024 Pareto Softare, LLC DBA Simplemaps.com ***************************************
************* Free for Commercial Use, full terms at  https://simplemaps.com/resources/svg-license ************
************* Attribution is appreciated! https://simplemaps.com *******************************************-->

<svg baseprofile="tiny" fill="#6f9c76" height="890" stroke="#ffffff" stroke-linecap="round" stroke-linejoin="round" stroke-width=".5" version="1.2" viewbox="0 0 1000 890" width="1000" xmlns="http://www.w3.org/2000/svg">
 <g id="features">
  <path d="M563.6 459.2l-0.9-0.8-0.6-0.9-0.5-1-0.4-1.2 0.6 0 0.8 0 0.9 0.5 0.6 0.6 0.8 0.1 1-0.5-0.3 1-1.8 1.4-0.2 0.8z m96.7 25.7l1 2.1 0.4 0.5-1.2 0.5-0.9-0.9-0.1-1.4 0.8-0.8z m46.6-421.7l-0.1 0.6-0.1 1.2 0.1 0.7 1.1 0.5 0.5 0.7 0.2 1.1 0.1 0.2 0.1 0.3 0.4-0.1 0.5-0.3 0.8-0.1 0.9-0.3 0.3 0 0.8 0.4 0.4 0.3 0 0.2-0.1 0.4 0 0.5 0.3 0.9 0.2 0.3 0.5 0.2 0.5 0.1 0.5-0.1 0.4-0.3 0.2-0.4 0.4-1 0.6-0.4 0.8 0.1 1.2 0.3 1.7 0.9 0.5 0 0.4-0.2 0.5 0 1.1 1.2 0.2 2-0.4 2.2-0.7 1.8-0.5 0.7-1.6 1.8-0.4 0.4 0.5 1.2 0.8 0.9 0.9 0.5 1 0.3 1.1 0.1 0.7-0.3 0.3-0.7 0.1-1.5 0.3-1.1 0.7-0.8 0.9-0.3 0.9 0.2-0.9 0.8-0.3 0.7 0.2 0.7 0.7 0.8 0.7 0.5 2.4 0.4 1.4 0.8 1.3 1.1 1.5-0.2 0.4 0.1 0.6 0.5 0.3 0.2 1.4 0.2 0.7 0.2 0.5 0.6 1.4 1 1.5 0.5 3.3 0.3 3.1-0.6 1.1 0.4 0.5 1.6 0.2 0.4 0 0.4-0.1 0.2-0.1 0.3 0.2 0.5 0.4 0.4 0.4 0.1 0.4-0.1 0.4 0.1 1.4 0.9 0.8 0.6 1.5 2.1 0.1 0.2-0.1 0.2 0 0.2 0.3 0.2 0.6 0 0.2 0 0.2 0.4 0 0.3 0 0.3 0.4 0.3 0.3 0 0.7-0.5 0.3-0.1 0.1-1.3 1 0 2.2 1 1.2-0.1 1-0.6 1.9-1.5 0.4 0.3 0.3-0.1 0.3-0.4 0.2-0.5 0.6 0.5 0.1 0.1 2.4 1.4 0.4 1.1 1.1 0.1 1.2-0.3 0.7-0.3-0.1 0.9 0.3 1 0.5 0.8 0.6 0.5 0.3 0.3 0 0.4 0.1 0.4 0.5 0.2 0.5 0.1 0.3 0.3 0.1 0.2 0.3 0.3 1.6 0.6 1.4-0.1 3.1-1.2 2.5-0.3 0.7-0.6 0.7-0.1 2.1 0.6 0.7 0.3 0.8 1.6 0.7 0.7 0.6-0.1 1.1-1.6 0.7-0.7 0.8-0.3 1.1 1 0.1 0.2-0.1 0.2 0.1 0.2 0.2 0.2 0.8 0.2 0.8-0.1 1.5-0.4 0.7 0.3 5-0.1 1.4 0.2 0.6-0.2 0.2-0.5 0.1-0.1 0.1-0.9-0.3-0.8-0.5-0.7-0.6-0.2 0.3-0.5 0.1-0.3 0.3-0.2-0.4-0.6 0.6-1.6-0.1-1.1 0.2-0.8 0.9-0.4 1.1-0.1 0.7 0.1 1.4 0.6 0.7 0.1 0.8-0.1 0.7 0.2 1.7 1 1.2 0.5 0.4 0.2 0.6 0.7 0.5 0.2 0.3-0.2 0.4-0.4 0.4-0.1 0.4 0.1 0.6 0.6 0.3 0.2 3.5 0.2 0.8 0.3 0.8 0.6 0.3 0.8 0.4 0.9 0.4 0.7 0.7 0.5 0.4 0.1 1.4-0.5 4.9 0.1 1 0.2-0.2 0.8 0.2 0.2 0.4 0 0.3 0.2 0.7 1.3 0.8 1.1 0.7 1.9 0.6 0.7-0.2 0.4-0.2 0.5-0.1 0.5 0.4 0.3 0 0.2-0.7 1.1-0.1 0.7 0.9-0.2 0.7 0.7 0.1 0.8-0.8 0.6-0.2 0.1-0.7 0.3 1.2 1.8 0 0.7 0.4 0.4 2.5 0.3 0.3-0.1 0.5-0.2 0.2-0.3 0.2-0.4 0.2-0.2 2.6-0.3 1.3-0.6 0.4-1.5 0.2-0.1 0.1-0.1 0.1 0 0.1 0.2 0.5 0.2 0.5 0 0.4-0.2 0.4-0.5 0.1 0.1 0.1 0.1 0 0.1 0 0.2 0.8 0.3 2.5 0.4 0.8 0.3 2.3 1.6 0.9 0.2 0.8 0.1 0.6 0.2 0.6 0.9 0.5 2.1 0.4 0.8 0.8 0.7 0.5 0.4 0.5 0 1.1-0.1 0.6-0.1 0.5-0.4 0.7-0.7 0.9-0.7 0.2-0.3 0.3-0.8 0.2-0.3 0.7-0.3 1.9 0.2 2.5-0.8 1.2-0.1 1.2 0.6 0.5 0.4 2.3 1.1 1.3 0.3 0.6 0 0.3 0.9 0.6 0.9 0.8 0.6 0.8 0.2 0.8 0.5 0.4 0.1 0.5 0 0.2-0.3 0.4-0.9 0.3-0.2 0.8-0.1 1.8 0.7 0.9 0.1 1.1 0 0-0.3-0.5-0.5-0.4-1.1 0.3-0.4 1.7-1.4 0.7-0.4 0.9 0 1.5 0.2 0.9-0.1 0.6-0.4 1.3-1.2 0.6-0.4 0.7-0.1 0.6 0.1 0.7-0.2 1.4-1 1.3 0.5 0.6-0.4 0.5 0 1.2 0.1 0.2 0.1 0.3 0.6 0.3 0.5 0.4 0.4 0.5 0.3 0.8 0.3 1 0.1 1.1-0.1 1.7-0.3 0 0.8-0.4 1.1 0.2 0.9 0 0.9 0.5 0.8 0.7 0.6 0.9-0.2 0.9 0 0.6 0.7 0.2 0 0.5-0.4 0.5 0.1 1 0.7-1 1.9-0.1 0.5-0.2 0.8-0.3 0.4-0.3 0.3-0.3 0.6-0.7-0.3-1.5 0.3-1.2-0.5-0.4-0.6-0.7 0.2-0.9 0.9-0.5 1.2 0 1.9-0.1 1.3 0.3 1 0.6 0.7 1.4 0.9 0.8 1 0.9 1.3-0.1 0.7-0.5 0.5-0.2 0.8 0.3 0.8 0.2 1.1 0 0.4 0.2 0.3 0.7 0.6 0.3 0.4-0.2 1.1-1 1.7-0.5 1.4-0.7 0.7-1.1 1.7-1.3-0.2-1.6 1.2-0.4 1.5-1.1 0.6-3.6 2.9-0.8 1.2-1.3 0.3-0.9 0.2-1.1 0.3-0.4 0.1-0.2 0.1-0.6 0.6-0.2 0.2-0.1 0.4-0.4 0.1-0.5 0-0.5 1.3-5.1 2.1-8.2 3.8-0.8 0.9-2.4 1.6-3 1.3-1.2 0.9-1.1 1.5-1.9 3.5-1.2 1.6-1.3 1.2-2.8 1.6-1.7 0.4-2.7 0.3-2.7 0.7-0.9 0.5-0.4 0.1-1.3 0-7.9 2.4-3.5 0.3-10.1 3.8-2.9 0.6-0.3 0.2-0.7 1.3-0.1 0.4-0.2 0.3-0.5 0.3-0.9-0.6-0.3-0.1-1.8 0-1.7 0.3-1.6 0.7-1 0.7-4.6 4.5-2.2 3-4.4 4.5-0.8 1.5 1.1 0.7 1.1 0.4 0.5 0 0.2-0.3-0.1-0.4-0.6-0.4 0.7 0.1 0.6 0.3 0.4 0.4 1 1.2 1 0.9 0.5 0 0.8 0.2 0 1.1-0.6 1.2-0.4 0.5-2.6 0.8-1.1 1-2 3.1-1.2 1-1.2 0.4-1.3 0.2-0.9-1.5 1.9-0.3 0.9 0.7 1.4-0.8 1.4-2.4-0.8-0.1-1.2 0.1-3.3 1.1-0.8 0.5-0.7 0.8-0.6 0.9-1.3 3.1-0.6 1.6-0.7 1-0.7 0.8-0.6 0.9-0.2 1.3-1.1 1.1-2.8 5.5-0.5 0.5-1 0.9-0.6 0.6-1.4 1.9-2.4 2.1-2.4 4.9-1.1 1.2-2.1 1.2-1 1.6-1.8 3.7-1 1.6-2.5 2.8-4.2 7-0.2 0.6-0.1 1.2-0.3 0.9-0.4 0.7-1 1-0.6 0.8-0.4 0.9-0.3 0.9-0.2 0.7-1.3 1.8-0.4 0.9-0.3 1.9 0.1 2.6 0.3 2.2 0.8 3.5 2.5 5.6 0.4 0.8 0.5 0.9-0.5 0.4-0.5 0.4 0.2 1 0.4 1.9 0.7 1.7 1 1.9 1.1 2.1 1.5 2.6 0.6 0.8 1.5 1.2 1.5 1.6 0.8 0.6 1.1 0.3 1.9 0.2 1.9 0.6 1.8 1 1.2 1.4-0.1 0.1-0.5 0.3 0.5 0.2 0.3 0.3 1.1 0.9 0.4-0.1 0.3 0.6 0 0.9-0.3 0.4-0.7 0-0.7 0.2-0.6 0.3-0.6 0.5-0.5 1.1 0 0.2-0.2 0.1-0.8 0.1-0.3 0.1-0.5 0.6-0.5 0.2-0.4 0.4-0.4 0.8 0.3 0.7-0.8-0.2-0.6 0.1-0.5 0.3-0.7 0.1-1.3 0.1-0.5 0.1-0.6 0.5-0.5 0.9 0 0.7 0.1 0.7-0.3 0.8-0.6 0.6-0.6 0.3-1.7 0-1.8 0.4-1 0.4-1.3 0.9-3.9 1.6-0.6 0.5-0.2 0.6-0.3 0.2-1.5 1.6-0.5 0.8-0.1 1 0 0.5-0.2 0.2-1.3 0.1-0.5 0.2-0.5 0.4-0.1 0.8-1.5-0.1-0.3 2.1 0.6 4.7-0.5 0.6-0.7 0.1-1.4-0.1-0.9 0.3-0.8 0.6-0.6 0.8-0.4 0.8-0.2 0.7-0.2 0.8-0.1 2.2-0.2 3.4-0.1 0.9-0.4 0.5-1 0.4-0.8 0.8-0.4 0.7-1.6 4.1-0.1 0.8 0 0.1 0.2 2-0.2 0.5-1.1-1.3-1 2.7-0.5 0.4-0.9 0.3-0.3 0.7 0.1 0.9 1.3 2.4 0.4 0.5 1.3 0.9 1 0.4 0.8 0.1 0.3-0.6 0.7 0.5 0.3 0.5-0.1 0.7-0.6 0.4-0.4 0.4-0.3 0.2-0.4 0-0.3-0.3-0.4 0.3-1.1 0.4-0.7 0.1-1.1 0.7-1.6 0-0.5 0.1-0.5 0.2-1 0.7-0.4-0.3-1.6-0.7-1.3-0.3-2.6-0.1-0.7 0.1-0.6 0.3-0.5 0.3-0.2 0.5 0.1 0.5 0.5 0.9-1.3-0.3-1.2-0.3-0.3-0.6-0.2-0.4-0.8-0.1-1.2-0.5-0.6-0.2-0.6 0.6-0.1 0.5-1.2 0-1.3-0.2-1.2 0.6-0.7 0.4-1.8 1.8-0.6 0.4-0.8 0.2-0.3 0.1-0.3 0.3-0.3 0.2-0.1 0.3-0.1 0.2-0.4 1.7-0.1 0.3-0.3 0.3-0.3-0.1-0.2-0.1-0.3-0.1-0.3 0.3-0.8 0.7-0.4 0.1-0.6 0.1-2 0.9-1 0.6-0.1 0.6-0.3 0.4-0.8-0.1-0.3 0.4-0.3 0.9-0.5 1.1-1.2 1.7-2.4 2.4-1 1.4-0.7 2.1-0.3 1.8-0.5 1.3-0.2 1.4-1.2 3.1-0.9 1.4 0 0.7 0.1 0.4 0.2 0.4 0 0.4 0 0.5-0.2 0.3-0.3 0.1-0.9 0-0.3 0.2-0.5 0.5-1.4 0.9-0.6 0.7-0.4 2.1-0.5 0.6-0.6 0.5-0.6 0.7-0.2 0.4-0.2 1-0.2 0.4-0.4 0.2-0.4 0.1-0.4 0.2-0.4 0.9-0.7 0.5-0.8 0.4-0.8 0.1-1.5-0.5-1.1-1.2-1-1.3-1.1-1.2-1.4-0.9-0.8-0.3-1-0.1-0.7 0.1-1.3 0.7-0.8 0.2-0.4-0.1-1.1-0.5-0.5-0.1-3.2 0.6-0.7 0.4-0.8 1.9-0.8 2.2-1 1.1-0.2 0.2-0.5 0.4-1 0.5-1.4 0.2-0.7-0.3-0.8 0.4-1.1-0.8-0.8-0.6-0.7-0.3-0.4 0.1-0.3 0.4-0.4 0.2-0.4-0.3-1.1-1.5-1.2-0.8-0.7 0-2.2 0.7-3.6-0.6-3.3 0.2-2.9-0.5-4.1 0.5-0.6 0.4-0.5 0.6-0.8 0.6-1.5 0.9-2.5 0-1.6-1.3-0.8 0.1-0.6 0.3-1.4-0.7-0.6-0.8-1.3 0.1-1.3 0.1-0.6 0.5-2.1 0.2-2.9-0.9-1.4-0.5-2.1 0.5-2.9 0.8-3.8-1.1-1 0.3-1.2 0.9-3.5 0.5-1.1 0.1-7.2-0.5-0.7 0.2-0.5 0.4-1.2 2-0.2 0.4-0.6 0.6-0.4 0.8-0.2 0.8-1.1 2-2.6 0.3-1.1 2.2-1.4 0.9-0.4 0.2-0.8 0.4-1.7 0.4-1.7-0.1-4.7-0.6-0.9 0-0.4 0.1-0.4 0.4-2.9 2-2.8 0.2-1.8 1.2-0.5 0.2-1.5 0.1-0.7 0.3-0.5 0.3-0.5 0.7-1.1 2 0 0.4-0.7 1.9-0.4 0.7-0.2 0.2-0.3 0.3-0.3 0.2-0.7 0.3 0.1 0.4 0.1 0.4-0.4 0.7-1.3 2.5-0.2 0.5-0.2 2.3-0.8 0-0.3-1.1-0.7-0.4-0.9-0.4-0.8 0-0.2 0.5-0.3 0.4-0.2 0.6 0 0.7 0.3 0.7-0.2 0.4 0.1 0.7 0.2 0.5 0.1 0.4-0.1 0.6-0.3 0.3-0.2 0.3-0.9 0.3-4 1.5-0.6 0.4-1.3 0.3-0.7-1.5-1.7-0.9-0.7-0.6-0.9 0.4-0.9-0.3-0.8-0.5-1.7-0.5-0.6-0.6-0.9-1.2-2.6-2.6-0.8-0.5-0.9 0-1.8 0.3-2.1-0.6-1.1-1.4-0.8-1.7-0.9-1.5-2.2-1.2-0.2-0.7-0.1-0.8-0.3-0.9-0.4-0.9-1.4-1.6-0.9-2.2-0.6-1.5-0.9-1.7-0.9-0.8-0.4-0.4 0.5-0.2 0.4 0.1 1.3 1.1 0.3 0.5-0.2 0.4 0.3 0.5 0.6 0.7 0.5-0.1 0.3-0.3 0.5-0.7 0.8-1-0.3 0-0.8 0.3-0.7-0.1-0.3-0.8 0.2-1.5-0.3-1-2-1.8-0.4-0.3-2.7-0.1-0.8-0.2-0.6-0.7-0.5-2-0.4-0.9-0.6-1-0.2-0.9 0.2-0.9 0.7-0.8 0.8-0.4 1.5-0.6 0.5-0.4 0.4-1.2-0.3-2.1 0.2-1.2 1.4-1.2 3.2 0.3 1.2-1.6-0.8 0.6-1 0.4-1 0-0.8-0.6-1.7 0.6-0.8 0.6-0.3 1.1 0.3 3-0.3 0.6-1.4 0-1.1-1.5-1.4-3.3-0.9-1.6-1.1-1.2-9.9-7.2-1.1-0.6-0.9-0.2-0.7-0.3-1.7-1.4-0.8-0.4-0.8-0.4-0.7-1.2-0.3-1.3 0.3-0.6 0.5-0.4 1.4-2.1 0.4-0.9-2 2.3-1.1 0.8-1.3 0 0 0.3 0.9 1.4 0.4 0.8 0.1 0.6-0.6 0.1-3.5-1.8-1.3-0.4-1.6-0.5-1.1 0.4 1.2 0.2 0.5 0.3-9.8 0.2-0.6 0.3-0.8 0.7-0.7 0.1-0.7-0.3-0.7-0.3-0.6-2.3-0.2-1.1 0.3-0.8-0.4-1.7-0.3-4-0.7-1.6 0.1-0.6-0.1-1.1-0.3-1.2-0.3-1-0.2-0.3-0.7-0.6-0.3-0.3-0.3-0.5-0.1-0.1 0-0.2-0.1-0.4-0.2-0.7-0.1 0-0.1 0 0-0.6 0.1-0.2 0.4-0.5 0.1-0.2 0.1-0.3 0-0.2-0.1-0.3 0.4-0.3 1-1.1 0.3-0.4 0.2-0.8 0.4-2.5 0.5-1.5 0.7-1 3.8-3.2 1.1-2 0.4-1.7 0.9-2.4 0.2-0.9 0-0.5-0.1-0.5 0-0.4 0.2-0.3 1.3-0.3 0.4-0.3 0.6 0.1 0.5 0.1 0.5 0.1 0.5-0.3 0.5-0.1 0.3-0.2 0.4-0.6 0.4-1.1 0.4-0.4 0.7 0.1 2.3 1 1-0.2 0.3-1.2 0.4-0.6 0.4-1.6 0.7-1.6 0.6-1.7 0.3-0.7 0.4-1.5-0.1-0.1-0.6-0.4-1.1 0.1-1.1 0.3-0.1 0-0.2-0.1-0.5 0.7-1 0.5-1 0.2-0.6 0-0.6-0.5-0.4-0.4-1.6-4.2-0.2-0.2-0.7-0.5-0.3-0.3-0.1-0.3-0.3-0.7-0.2-0.3-4.2-5.5-1.2-0.9-0.5-0.3 0.5-0.6 0.4-0.5 0.1-0.6-0.5-0.7 0.4-0.6 0.7-2.6 1.7-2.5 0.2-0.7-0.1-0.4-0.2-0.2-0.3-0.1-0.2-0.4 0-0.4-0.1-0.5 0.1-1.2 0.3-1.7 0.1-0.4 0.4-0.7 0-0.2 1.8-1.5 0.6-0.5 0.6-0.2 0.7-0.6 0.6-0.6 0.2-0.5 0.4-0.3 1.8-0.4 0.7-0.4 0.5-0.5 0.5-0.4 0.3-0.2 0-0.7 0.2-0.8-0.6-1.1 0.9-0.7 0.9-1.3 1.3-2.6 0.4-0.5 0.2-0.5 0-0.5-0.5-0.4 0.3-0.9-0.3-1-0.5-0.9-0.7-0.7-0.9-0.6-1.1-0.3-1 0.1-1 0.6-0.5 0.2-0.6-0.1-0.6-0.3-0.4-0.4-0.1-0.5 0.5-1 0.1-0.5-0.5-1-1-0.4-1.1-0.3-1-0.6-0.6-0.8-0.3-1.1 0.1-1.1 0.5-0.9-2-2.5-0.7-0.6-0.3-0.6-0.2-1.1 0-1.2 0.2-0.7 0.3-0.8 0.2-1.2 0-1.1-0.3-0.5-1.7-0.5-0.8-0.4-0.7-0.5-0.3-1.1-0.4-0.5-1.4-0.7-0.6-0.6-1.2-1.6-0.8-0.7-1.3-3.7-0.3-0.7 0-0.1 8.7 0.4 0.5-0.2 0.7-0.3 0.7-0.1 1.7 0 0.6-0.2 0.9 0.6 1.3 0 5.9-0.7 0.6-0.3 0.5-1.1-0.1-0.4-0.1-0.3 0-0.5 0.2-0.5 0.5-0.9 0.2-0.5-0.1-0.4-0.2-0.5 0-0.6 0.3-0.7 0.3-0.3 0.9-0.3 0.4-0.3 1-1.5 0.1-0.5 0.1-0.9 0-0.5 0-0.2-0.1-0.6 0-0.2 0.1-0.3 0.4-0.3 0.1-0.2 0.3-1.3 0.1-0.5-0.1-0.5 0.2-0.6 0.7-1.2-1.6-2.9-0.9-1.1-0.5-0.9-0.5-0.4-0.4-0.2-1.1-0.1-0.5-0.2-0.4-0.7-0.3-1.8-0.4-0.8 0.4-0.6 0.4-1.2 0.3-0.5 0.8-0.3 1.7-1.2 0.5 0 0.3-0.1 0.8 0.1 0.8-0.1 0.7-0.5 0.1-0.3 0-0.4 0.1-0.5 0.1-0.4 0.3-0.3 1.7-1.3 0.4-0.3 0.7-1.3-1.4-1.3-0.9-1.5-0.3-1.8 0.8-1.8 0.9-1.4 0.1-0.6-0.2-0.9-0.4-0.8-0.5-0.4-0.3-0.6-0.1-0.9 0.3-0.8 0.9-1.8 0.3-0.9 0-0.6-0.1-1-0.3-1.7-0.5-1.8-0.1-0.7 0-1.1 0-0.5 0.2-0.3 0-0.3-0.1-0.6-0.1-0.3 0.1-1.4 0.6-0.2 0.2-0.6-0.2-0.8-0.4-0.3-0.7-0.1-0.3-0.5-0.3-1.1-0.9-2.2-0.6-0.9-1.2-1.4-0.4-0.6-0.1-0.7 0.4-0.7 0.2-1 0.8-0.4 2.5 0.2 1.1-0.1 0.6-0.6 1.6-2.3 0.3-1-0.1-1.3 0.2-0.4 0.5-0.7 1.4-1.2 0.2-0.5 0.3-0.8 1.5-2.1 0.4-0.6 0.8-0.1 2.6 0 0.4-0.3 2.3-1 1.4-1.1 1.3-1.3 1.2-2.1 0.2 0 0.5 0.1 0.1-0.1 0.1-0.3 0.1-0.4 0-0.3-0.2 0 0.6-0.5 0.5-0.2 1.3-0.1 0-0.4 1.5-2.5 0.1-0.4-0.2-0.3 0-0.5 0.3-0.5 1-1.1 1.9-2.9-0.4-0.5-0.5-0.8-1.7-1.8-1.8-1.2-2-0.7-3.3-0.7-0.5 0-0.3 0.2-0.3 0.4-0.5 0.4-0.7 0.3-0.4 0.1-1.1-0.4-0.6-0.9-0.2-1.1-0.1-1-0.2-0.5-0.2-0.5-0.2-0.4 0.3-0.5 0.3-0.5 0.1-0.5 1-4.4 0.5-1-1.1-0.4-0.7-0.1-0.3-0.4 0.3-2.3-0.1-0.9-0.6-0.7-1-0.4-0.5 1.2-1.4 0.4-2.8 0.1-1.3-0.3-1.4-2.3-1.3-0.3-0.2 1.7-1 0.6-2.5 0.2-1.1-0.3-1-0.7-0.6-0.3-0.3-0.2-1 0.7-1.4 0.6-1.3-0.6-1.2-1-1.3-0.9-0.6 0.1-0.7 0.4-0.6 0.5-0.3 0.3-0.1 0.8 0.3 1.7-0.1 0.9-0.5 0.7-0.4 0.5-1.3 0.9-2.9 1-0.7 0.1-1.5-0.1-0.6 0.1-0.5 0.4-1 1.1-0.5 0.5-0.2-0.9-0.4-0.9-0.5-0.7-0.6-0.2-0.3-0.1-0.7-0.4-0.3 0-0.3 0.3 0 0.3-0.1 0.3-0.2 0.4-0.6 0.5-0.8 0.3-0.9 0.1-0.7-0.1-0.7-0.3 0-0.5 0.6-1.8-2.1 0-0.7-0.4-1.2-0.8-0.6-0.2-1.1 0.6-2.5 0.6-1.1 0-0.5 0.1-0.1 0.3-0.2 0.4-0.3 0.3-1.2 0-0.3-1.6-0.1-1.5-0.8 0.3-0.2 0.7-0.2 0.9-0.4 0.7-0.7 0-0.7-0.1-0.6 0.3-0.5 0.5-0.4 0.6-1.3 1.4-0.1 0-1.7 0.6-3.5-0.3 0-0.1 0.2-1.3-0.1-0.7-0.3-0.4-1.4-0.6-0.5-1 0.1-1 0.4-0.9 1.5-2.4 1.2-1.1 1.2-0.8 0.6-0.5 0.4-0.7 0.1-1-0.3-0.8-0.6-0.6-0.8-0.3-0.8 0.1-0.7 0.3-0.7 0.2-0.5-0.4-0.1-0.9 0.1-2.3-0.3-0.9-0.4-0.5-1.2 0.9-0.8 0.3-0.7 0-0.3 0.1-0.3 0.2-1.1 1-0.6 0.3-6.3 1-0.7 0.3-1.4 1-0.8 0.3-1.4 0-0.8 0.2-0.6 0.5-0.4 0.6-0.4 1.1-0.3 0.6-0.9 0.5-1 0.3-0.9 0.5-0.5 0.3-0.4 0.9-0.6 0.9-0.8 0.6-0.8 0.2-0.7 0.4-0.6 0.8-0.7 0.6-0.6-0.2 0.1-0.8-0.8-10.6 0.1-0.9 0.4-0.4 1.6 0 0.8-0.2 0.3-0.5-0.2-0.5-0.8-0.3-0.1-0.4 0.2-0.2 1-0.5 0.1-0.3 0.1-0.5 0.2-0.5 0.4-0.2 0.2-0.2 0.8-0.9 2.1-1.7 0.5-0.2 0.2-0.1 1.3-1.2 0.7-0.3 0.9-0.6 0.2-0.3 0.2-0.4 0-1.7-0.1-0.4-0.1 0-0.4 0.1-0.6 0.6-0.4 1-0.6 1-1 0.4-0.8 0.2-2.2 1-0.4 0.5-0.5 0.1-2.1-0.2-0.8 0.3 0.2-0.7 0.4-1.2 0-0.8 0.3 0 0.5 0.9 0.3-0.4 0-1.8-0.1-0.4-0.1-0.3 0.2-0.1 0.5-0.1 1.5 0.3 0.2-0.1 0.3-0.7 1.5-1.8 0.7-0.7 1.3-0.9 0.6-0.5 0.3-0.8-0.4 0.2-0.3-0.1-0.4-0.1-0.4 0-0.1 0.1-0.1 0.1-0.9 0.5-1 0.8-0.5 0.4-0.9 0.2-1.3 0.1-1.3-0.2-1-0.6-0.3-0.6-0.2-1-0.3-0.6-0.5-0.3-1.4-0.2-0.3-0.2 0.3-0.6 0.7-0.4 0.9-0.4 0.6-0.1 0.5 0.1 0.3 0.5 0 0.5-0.5 0.4 0.3 0.2 0.6 0.2 0.6 0.1 0.4-0.1 0.1-0.6-0.1-0.7 0-0.5 0.5-0.5-0.5-1.9 0-0.9 0.1-0.8 0.4-0.7 0.5-0.4 0.5-0.2 0.5-0.7 1.5-3.3 0.3-1.3-0.2 0-0.3 0.9-0.4 0.9-0.5 0.6-0.7 0.3-0.8-0.3-0.5-0.7-0.4-0.9-0.5-0.4-0.7 1.1 0 0.7 0.4 0.5-0.9 1.2-0.5 0.3-0.6-0.4 0.2-0.6-0.5 0.3-1.4 1 0.6 0.7-0.5 0.4-1.4 0.4-0.1 0.3-0.3 1.3-0.4 0.1-0.3 0.3-0.6 0.7-0.6-0.7-0.1-1-0.2-0.9-0.9-0.4-0.6-0.6 0.2-1.3 0.6-1.4 0.5-0.9 0-0.6 0.1-0.8 0.3-1.1 0.4-0.7 0.2-0.4 0.3-0.4 0.5-0.1 0.1-0.2 1.2-0.6 1-1.5 0.6-0.5 1-0.3 0.3-0.4 0.2-0.8-0.1-0.9-0.8-0.5-0.2 1.3-0.6 0.8-0.9 0.4-1.1 0.1-2.1-0.3-0.8 0.2 0.1 0.9-0.9 1-0.5 0.3-0.8-0.2-0.5-0.4-0.3-0.7-0.2-0.9-0.4-1 0.5 0 0.4-0.2 0.3-0.4 0.2-0.5-0.3-0.7-0.6-0.4-0.7-0.3-0.1-0.4-0.2-0.7 0-0.4 0.1-0.2 0.3-0.4 0.1-0.3 0.1-0.5-0.1-0.4-0.2-0.2-0.7-0.1-0.4-0.2-0.6-1-0.5-0.2 0 0.3 0.2 0.6-0.2 0.3-0.4 0.1-0.2 0-0.2-0.8-0.4 0-0.4 0.3-0.4 0.3-0.3 0.5-0.4 1.1-0.3 0.5-0.2-0.1-0.4-1.3-0.3-0.4 0-0.3 0.2-0.5 0.9-2.3 0-0.4 0.1-0.4 0.1-0.5 0.2-0.3 0.1-0.5-0.2-0.3-0.6-0.5-0.3-1.3 0.3-0.3 0.6 0 0.2-0.5 0.3-1 0.4-0.5 0.5-0.3 0.2-0.7 0.6 0.6 0.5 0.1 0.5-0.2 0.6-0.5 0.2-0.3 0.1-0.2 0.2-0.3 0.4-0.3 0.3-0.2 0.3-0.1 0.7 0 0-0.4-0.7 0.3-0.9 0.2-0.6-0.1 0-0.4-1.3 0.6-0.5-0.1-0.4-0.9 1.9-1.9 1.3-0.7 1.5 0.7 0.7 0 0.7-0.2 0.6-0.2 0.5-0.4 0.5-0.4 0.4-0.7 0.2-0.8 0.3 0 0.8 0.6 1 0 1.1-0.5 0.7-0.5-0.9 0.1-0.4-0.4-0.6-1.2-0.2 0-0.5-0.3-0.3-0.3 0.3-0.2 0.4 0 1.6-0.7 1.7-1.2 1.3-0.3 0.3-0.4 0.3-0.3 0.4-0.1 0.6 0.3 1.2 1.3 0.7 0.3 0.8 0.1 1.5 0.5 0.8 0.1 1.1-0.4 1.4-0.8 1.5-0.5 1.4 0.6 2.1-1 0.4-0.3 0.1-0.5 0.3-0.5 0.4-0.3 0.9-0.2 0.1-0.2 0.1-0.2 0.3-0.2 2.2-0.6 0.1 0.7 0.4 0.6 0.9 0.8 0.5-0.7 0.1-0.5-0.1-1.3 0.4-0.7 0.8 0.1 1.2 0.8 0.6 0.2 0.2 0.5 0.2 0.6 0.3 0.6 0.9 0.9 0.4 0.6 0.3 0.8 0.3-0.9 0-0.8-0.3-1.7 0-0.9 0.2-0.5 0.4-0.4 0.8-0.5-0.8-0.4-0.7-0.1-1.4 0.1-0.7-0.2-1-1.1-0.7-0.2 0.8-0.6 4.1-0.6 0.3-0.1 0.2-0.2 0.2-0.4 0-0.4-0.2-0.1-1 0.5-2.4 0.4 0.1-0.2 0.1-0.1 0.3-0.1-0.1-0.2-0.4-0.2-0.5 0.7-0.8 0.3-1.8 0.1 0.3-0.8 0.2-1.2 0.2-0.8 0.4 0.2 0.6-0.8-0.4-0.3-0.3-0.4-0.2-0.6 0-0.6 0.2 0 0.7 0.1 0.3-0.1 0.9 0.1 1.2-0.6 5.9-4.5 0.1 0.6 0.4 0.4 0.4 0 0.5-0.2-0.4 0-0.2 0 0-0.4 0.2-0.1 0.2-0.2 0.2-0.1-0.8-0.6-0.1-0.6 0.2-0.6 0.1-0.7 0.3-0.4 0.6-0.2 1.3 0 1.2-0.3 1.2-0.7 1-0.9 0.8-1.1 1.1 0.1 0.5 0.8 0.3 1 0.6 0.8 0 0.3-0.3-0.1-0.4-0.1-0.2-0.1-0.3 0.5-0.1 0.5-0.1 0.4 0.3 0.4-0.4 0.4-0.2-0.1-0.3-0.3-0.2 0.3-0.1 0.1-0.2 0.1 0 0.3 2 0.2 0.4-0.5-0.8-1.2 0.5-0.3 0.5 0 1 0.3-0.1-0.2-0.1-0.4-0.1-0.2 0.6-0.6 0.7-0.6 0.8-0.5 1.6-0.4 0.9-0.6 0.7-0.8 0.2-0.9 0.2-0.1 0.3 0.1 0.3 0.4 0.1 0.6-0.2 0.4-0.9 1.1-0.1 0.8 0.2 0.3 0.3-0.1 0.4-0.2 0.1-0.1-0.1-0.3 0.1-0.3 0.3-0.1 0.3 0 0.7-0.4 0.1 0.8 1 1.9-0.1 0.9 0.3-0.1 0.5-0.7 0.4-0.8 0.5 0.2 0.3-0.3 0.4-0.5 0.6-0.2 1.6 0.2 0.5 0.2 3.3 1.9 1.6 0.6 2.6 4.5 1.9 1-0.1 0.2-0.1 0.2-0.1 0.2-0.3 0.1 0 0.4 0.6 0.3 0.3-0.2 0.3-0.3 0.5-0.2 0.6 0 0.8 0.3 1.5 0.2 2.5-0.1 0.7-0.4 0.7 0.4 0.7 0.1 0.5 0.4 0 1.1-0.3 0.6-0.4 0.7-0.2 0.7 0.4 1 0.2 0 0.2-0.9 0.2-0.9 0.2-0.8 0.6-0.4 0.3-1.3 2.3-0.5 4-0.2 0.6 0.2 2.4-0.2 1.7 0.5 1 0.1 2.3-1.2 2 0.2 2.1 0.8 1.5 0.8 0.4-0.3 0.4-0.1 1.1 0-0.1-0.3-0.1-0.6-0.1-0.3 0.6 0.1 0.9 0.6 0.6 0.1 2.1-0.4 2.1 0 0.5-0.1 1.1-0.5 1-0.2 0.2-0.3 0.3-0.3 0.6-0.1 1.3 1 0.5 0.1 3.1 0.4 0.6-0.4 0.7 0.4 0.6-0.3 0.6-0.5 0.6-0.3 4.7 0 0.2-0.5-0.3-0.4-0.1-0.5 0.5-0.5-0.1-0.2-0.1-0.4-0.1-0.2 1.3 0 0.5-0.2 0.2-0.7 0.2-0.6 0.7 0.1 1.3 0.6 0.9 0.8 2.2 2.6 0.7 1.2 0.3 0 0.2-0.8 0.3 0.3 0.5 0.9 2.1 0.4 8.1-0.4 1.3 0.4 0.1 0.7-0.5 0.9-0.7 0.7 0.2 0.4 0.5-0.3 0.8-0.3 0.4-0.2 0.3-0.4 0.1-0.3 0.2-0.3 0.6-0.1 1.7 0.1 0.7 0.3 2.9 1.9 1.4 0.5 3.5 0.2 0.9 0.3 0.5 0.7 0.4-0.3 2.9 0.8 0.3-0.1 0.6-0.5 0.4-0.1 0.5 0.1 0.9 0.5 2.9 0.6 3.3 1.6 0.8 0.2 9 0.8 0.1 0.1 1.1 1 0.8-0.8 1.2-0.2 1.1 0.3 0.8 0.7 0.2 0 0.5-0.7 0.3-0.2 1.9 0.2 5-0.5 1.2-0.9 2.5-0.8 1-0.1 1.8 0 0.2-0.2 0-0.2 0.1-0.3 0.3-0.1 0.3 0.1 1 0.7 0.2-0.3 0.2-0.1 0.2 0 0.2 0-0.1-0.1-0.4-0.3 0-0.4 1.4-1 0.7-0.3 0.6 0.2 0.5-0.3 0.2 0 0.2 0.3 1.1-0.7 1.3-0.3 1.2 0.2 1.1 0.8-1.8 0.8-0.7 0.5-0.6 0.6 0.5 0.5 0.2 0.2 0.2 0.1-0.2 0-0.1 0 0 0.1 0 0.2 0.4 0.1 0.4-0.1 0.6-0.3 0.3-0.3 0.5-0.8 0.2-0.1 0.3 0.1 0.4 0.5 0.4 0.2 0.1-0.3-0.1-0.5-0.2-0.5-0.3-0.2 0-0.4 0.6 0.1 0.2 0.1 0.3 0.2 0.1-0.3 0.2-0.1-0.3-0.4 0.5-0.2 1.1-0.1 0.5-0.3 0.4-0.4 0.5-0.2 3-1 1.1 0.1-0.1 1 0.7 0 0.5 0.4 0.5 0.5 0.3 0.2 2.8 0.5 0.2 0.2 0.2 0.3 0 0.3-0.1 0.5-0.1 0.1-0.3-0.1-0.3 0.1-0.2-0.2-0.4-0.2-0.3-0.1-0.2 0.3-0.1 0.3-0.4 0.3-0.6 0.4 0.8 0.1 0.4 0.7 0.4 0.2 0.6-1 0.4 0.6 0.6 0.1 1.2-0.4 0.6 0.1 1.9 0.7 2.5 0.4 1.8 0.7 0.6 0.1 0.4 0.2 0.9 1.1 1.1 0.3 0.7 0.3 0.8 0.1 0.9-0.8 1.3 0.8 2 1.8 0-0.4-0.5-1.4-0.1-0.7-0.2-0.4 0-0.2 0.2-0.2 0.5-0.2 0.5-0.6 1.7-1.1 0.7-0.2 0-0.4-0.3 0 0-0.3 0.7-0.4 1-0.1 2 0.1 2-0.2 0.8-0.4 0.7-0.2 0.5 0.1 0.9 0.6 0.8 0.8 0.3 0.6 0.5 1.4 0.1 1.2 0.2-0.2 0.3-1 0-0.3 0-0.3 0.1-0.3 0.2-0.3 0.4-0.1 0.5 0.2 0.5 0.2 1.2 0.2 2.4 1 1.7 0.4 0.9 0.3 0.8 1.2 3.9 1.9 1.6 0.5 1.8 0.2 1.7-0.2 1.4-0.4 0.4-0.1 0.3 0.2 0.2 0.4 0.4 0.4 0.5 0.2 0.1-0.1 0.1-0.1 0.2-0.1 0.3-0.1 0.2 0.1 0.1 0.3 0.1 0.2 0.3 0.2 1.2-1 0.5-0.1 0.8-0.2 2.9-1 0.9-0.6 0.5-0.2 0.5 0 0.5 0.4 0.3 0.5 0.3 0.3 0.6-0.4-0.2-0.2-0.4-0.4-0.2-0.2 1.6-0.8 1.5-1.3 1.5-0.8 0.7 0.5z m152.6 52.1l-1-0.1-0.5-0.5-0.1-0.6 0.5-1 0.4-0.2 0.5 0.5 0.4 1 0.4 0.7-0.1 0.1-0.4 0.1-0.1 0z m-804.6 724.7l0.8 0.1 0.7 0.4 0.5 0.6 0.2 0.6-0.2 0.7-1.7 2.6-0.1 0.2 0.1 0.3 0 0.3-0.2 0.3-0.2 0.1-0.2 0.1-0.2 0.1 0 0.3-0.2 0.2-0.3 0.3-0.3 0.3-0.1 0.4-0.1 1.1-0.4 0.5-0.6 0-0.8-0.5-0.6-0.6-0.4-0.6-0.5-0.5-3-0.4-0.8-0.4-0.6-0.6-0.2-1.6 1-0.5 1.8 0.1 1.6 0.4 0.6-0.4 1.6-1.5 0.3-0.4 0-0.5 0.2-0.2 0.9-0.4 1.4-0.9z m102.7-8.2l0.3 0.3 0.6 0.4 0.2 0.3-0.1 0.7-0.3 0.8-0.1 0.8 0.5 0.8 0 0.3-0.4 0.2-0.3 0.4-0.4 1 0.3 0.6 0.3 0.9-0.1 0.7-0.6 0.2-0.5 0.4-1.3 1.6-0.6 0.5-2.8 0.9-0.5 0.3-0.2 0-1.1 1.2-0.4 0.2-0.5-0.2-0.3-0.3-0.4-0.2-1.8-0.1-0.7-0.2-0.7-0.3-2.2-1.9-0.3-0.4-0.2-0.3-0.8-0.5-0.4-0.3-0.2-0.3-1.1-2.6-0.3-0.9 0.2-0.9-0.1-0.5-0.1-0.8 0-0.7 0.2-0.5 0.4-0.4 1.6-0.9 0.7-0.5 1-1 0.7-1.1-0.2-1.1 0.4-0.5 0.2-0.8-0.1-0.9-0.2-0.7 0.4 0 0.5 0 0.4 0.1 0.3 0.2 0.6-0.1 2.2 0.7 3 0 2.6 0.7 0.9-0.4-0.1-1.5 1.2-0.2 0.1 0.1 0.2 0.5 0 0.4-0.3 0.2-0.3 0.5 0 1.3 0.3 1.8 0.1 0.3 0.1 0.5 0.2 0.6 0.3 0.6z m-77.5-8.1l2-0.5 1.9 0.6 1.7 1.1 2.2 1.6 0.5 1.1 0.2 1-0.6 0.9-0.8 0.5-1.2 1.1-0.9 0.7-0.9 0.2-1 0.3-1-0.2-2.1-1.3-1.4-2.1 0-1.6 0.2-1.7 1.2-1.7z m35.6 2.6l-0.5 0.8-0.6 0.8-2.7 2.7-0.6 0.9-0.3 0.6-1.4-0.3-2.2 0.9-1 0.3-0.7 0.3-0.7-0.1-0.4-0.6-0.1-0.5 0.1-0.5-0.4-0.2-0.3-0.2-0.1-0.4-0.1-0.9-0.1-0.3-0.6-0.7-1.5-1.6-0.4-0.7-0.2-1-0.6-0.7-0.7-0.7-0.4-0.6-0.3-2-0.1-0.4-0.6-0.9-0.5-1.1-1.3-1.4-0.4-0.9 1-0.6 2.2-1 0.8 0.3 0.9 0.7 0.5 0.1 0.5 0 1.1-0.3 0.9-0.5 1.3-0.4 1-0.4 0.8 0.2 1.6-0.1 0.8-0.1 0.8-0.6 1-0.2 0.5-0.1 0.8-0.1 0.8-0.7 1.9-1.7 0.8-0.7 0.3-0.4 0.1-0.7 0.1-0.2 0.8-0.5 0.3-0.2 0.7-0.4 0.9-0.2 0.8-0.3 0.2-0.8 0.7 0.2 3.9 0.1 2.5-0.9 0.9 0.6-0.3 1.3-1.3 0.8-2.9 1.7-0.7 1.3-0.9 0.8-1.1 1.1-1.1 1-0.7 0.3-0.6 0.4-0.4 0.9 0 1 0.2 0.7 0.1 0.5-0.1 0.5-0.4 0.3-0.3 0.4-0.3 1.1-1.3 2.4-0.4 2 0 0.8z m99.2-26.9l1.5-0.6 1.5-0.2 1.4 0.4 1.1 1.4 0.5 1.5 0.1 2.1-0.3 3.9-0.2 1-0.8 1.7-0.1 0.6-0.1 1.6 0.1 0.5 0.1 0.3 0.4 0.6 0 0.3-0.2 0.5-0.7 0.7-0.1 0.2-0.1 0.4 0 0.5-0.2 0.4-0.6 1-0.4 0.7-0.4 1.6-0.9 1.5-1.4 0.8-4.2 0.7-1.9 0.5-1.3 1-1.6 0.4-0.9 0.4-1.3 1.5-1.1 1.5-1.2 1.3-1.7 0.8-1 0-1.6-0.8-0.8-0.2-2.7 0.2-0.5-0.2 0.2-0.1 0.1-0.6 0.1-0.5 0-0.2 0.3-0.1 1.4 0.3 0.8-0.1 1.5-0.5 2.3-1.1 2.9-1.9 1.2-1.1 0.6-0.8 0.5-0.8 0.2-0.9 0.2-2.2 0.4-0.8 0.9-1.4 1-3.3 0.2-0.5 0.5-0.4 1.2-2 0.9-2.3 1.6-2.3 0.5-2.3 0.6-1.4 0.2-1.7 0.2-0.6 0.4-0.5 0.7-0.4z m-152.8-3.8l-0.1 0.9 0.3 1.1 0.4 0.8 0.7 0.4 0.1 0.9-1.2 1.4-0.6 1 0.3 0.9 0.5 1.7-0.3 0.8-0.3 1.2-0.9 1.3-0.8 1.8-0.8 1.6-0.4 0.9-0.2 0-0.2-0.4-0.9-0.5-0.3-0.9-0.3-2.2-0.5-0.6-0.3-0.7-0.8-1.2-0.3-1-1.5-2.4-0.2-1.2-0.1-0.7-0.2-0.7-0.7-0.5-0.4-0.5 0.2-1.4 1.1-1.5 1.4-1.3 1-0.7 0.8 0.5 1 0.2 1 0.2 1.6-0.6 0.8 0.3 0.7 0.6 0.4 0.5z m172.6-19.5l0.7-0.1 0.8 0.5 1.1 1.1-0.4 0.9-0.1 0.8-0.3 0.6-0.8 0.5-0.2 0.7 0.1 0.7 0.3 0.6 0 0.9 0 0.3-0.4 0.6-0.1 0.4 0 0.3 0 0.8 0 0.4-0.7 1.2-1.1 1-1.3 0.7-1.9 0.5-0.4 0.4-0.4 0.4-0.4 0.2-0.7 0.1-0.9 0.2-0.7 0.1-1.4 0.3-1 0.8-0.9 1.2-0.7 1.4-0.3 0-0.4-0.6-0.8-0.3-1.9 0-0.3-0.2-0.3-0.6-0.1-0.5 0.1-0.3 0.5-0.1 0.3-0.4 0.4-0.7 0.2-0.8 0.2-2.3 0.1-0.6 1.3-2.2 0.7-0.8 0.6-0.4 0.7-0.3 0.7-0.2 1 0 0.7-0.3 1.4-1.1 0.8-0.5 0.7-0.3 0.7-0.1 2 0 0.6-0.2 0.4-0.5 0.5-1.1 0.5-1.6 0.3-0.8 0.5-0.7z m-0.2-2l0.4 0.8-0.6 1.1-1 0.8-1-0.2 0-0.3 0.7-0.7 0.3-1 0.4-0.8 0.8 0.3z m515.2-410.8l-0.3 1.1 0 1.2 0.6 1.9-0.8-0.9-0.2-1.5 0-1.7-0.1-1.5 0.2 0 0 0.1 0 0.1 0.1 0.2 0.1 0.2 0.2 0.5 0.2 0.3z m91.3-47.8l1.6-0.7 0.7 0.8-0.1 1.2-0.9 0.2-1.4 0-2-1.3-0.7-0.4-0.7 0.6-0.4 0.3-0.7 0.9-0.6 0.4-0.6-0.2 0.2-1-0.2-0.4 0-0.5 0.2-0.4 0.2-0.5 0-0.4-0.2-0.2-0.2-0.2 0.2-0.3 0.5-0.6 0.3 0.3 0.4-0.2 0.4-0.6 0.2-0.8 0.1 0 0.1 0 0 0.2 0 0.1 2 2.8 1.6 0.9z m3.2-21.5l-0.2 0.5 0.3 1 0.6 1.8-0.7 0-0.5 0.4-0.3 0.7-0.2 0.8-0.2 0.3-1.4 1-1.3 1.9-0.5 0.4-1.1 0.6-0.4 0.6-0.2-0.2-0.2-0.3-0.2-0.2-0.6 0.9-0.6 0.3-0.4 1.7-0.1 1.3-1.3 0-0.4-1-0.7-0.6-0.6 0.3-0.3 0-0.1-0.1-0.4 0.1-0.3-0.7-0.7-0.2-0.7 0.2-0.3 0.7-1.2-0.9-0.5-0.6-0.2-0.9 0.5-1.2 0.1-0.8-0.3-0.6 0.3-0.4 0.4-0.2 0.5-0.1 0.4 0.3 0.3-0.3 0.4-0.1 1 0.1-0.4-2.2 0.1-1.3 0.4-0.5 0.6-0.2 0.6-0.5 1-1.1 0.2 0 0.4 0.4 0.8-0.7 0.4 0.3 0.8-0.6 1.1-0.6 1.2-0.3 0.8 0.1 0.4-0.5 0.6-0.2 0.5 0 0.7 0.6 0.3 0.1 0.7 0 0.5 0.1 0.3 0.3 0.3 0.3z m70.7-36.2l1.1 0.3 2.3 1.4 1.4 0.1-0.2 0.5 0 0.5 0.1 0.4 0.1 0.4-0.2 0.3-0.2 0.2-0.1 0.3 0.2 0.7-0.5 1.4-0.5 0.8-0.5 0.3-0.7 0.2-0.4 0.6-0.2 0.9 0.3 0.8-1.6 1.5-1.7 2-1.3 2.6-0.4 2.9-0.4-0.3-0.1-0.1-0.7 2.2-1.2 1.3-3.7 2.3-1.6 1.4-0.3 0.5-0.2 0.2-0.3 0.2-0.4 0.2-0.2-0.2-1.1-1.7-0.2-0.2-0.7-0.3-0.2-0.2-0.2-0.5-0.1-0.5-0.1-0.5-0.3-0.2-0.4-0.1-0.6-0.6-0.4-0.1-0.5 0.1-0.6 0.2-0.4 0.1-3.5-0.3-1.6-0.6-1-1.3-0.4-2.8-0.6-0.4 0.1-0.9 0.6-1.2-0.4-1.1-1.2-1.1-1.3-0.8-1.1-0.3-0.9 0.3-2.6 1.4-0.5 0.6-0.5 1.5-1 1-1.1 0.2-0.7-1.4-0.1-0.1-0.1-0.4 0.1-0.3 0.4-0.3-1.1-1.1-0.4 0.5-0.3 0.2-0.2-0.2-0.3-0.5-1.1 0.7-0.2 0.1-0.4-0.3-0.4-1-0.7-0.6-0.2-0.9 0-1.1 0.3-0.8 2.9-1.8 0.8-0.2 0.8-0.5 1.9-2.1 0.6-0.3 0.9-0.1 0.6-0.3 0.7-0.5 1.3-1.4 0.2-0.3 0.2-0.6 0.1-0.2 0.2 0 0.5 0.1 0.2-0.1 0.9-1 0.2-0.2 0.2-0.1 0.8-1 0.2-0.2 0.3-0.1 1.2-0.6 0.6-0.5 0.5-0.5 0.4-0.3 0.6-0.2 0.2-0.1 0.2-0.5 0.2-0.1 0.8 0.1 0.4-0.1 1.2-0.5 2.4-1.7 1.3-0.3 2.3-0.2 2.2-0.6 4.2-1.7 0.5 0.7 0.2-0.2 0.2-0.1 0.5 0.3-0.4 0.3-1.5 0.7-0.5 0.1-0.6 0.3-0.5 0.6-0.5 0.4-0.5-0.2-0.3 0 0 1.7 1.4 0.2 3.1-0.8 0 0.3-0.4 0.3-0.1 0.3 0.1 0.4-0.2 0.4-0.2 0.3-0.2 0.2-0.7 0.2-1.3 0.4-0.3 0.4 0 1.1 0.4 1.1 1.1 1.1 1.3 0.7 1.2 0.3 2.7 0 0.8-0.3 1.2-1.2 0.6-0.3z m38.3-7.4l0.1 0.7 0.9 1.5 0.3 0.8-0.2 0-0.2-0.3-0.3-0.3-0.3-0.3-0.3-0.2-0.2 3.5-2 0.3-2.9-1.4-6.6-4.4-1.3-0.5-1.6 0-3 0.6-1.5-0.6 0.2-0.6 0-0.8 0.1-0.7 0.5-0.4-0.3-0.3-0.9-0.3-0.3-0.3-0.4-0.7 0-0.2 0.1-0.3 0.1-0.6 0.5-0.7 2.8-0.6 1 0.4 3.9-0.4 1.6 0.1 0.5-0.1 0.6-0.3 0.6-0.5 0.5-0.3 0.1 0.7 0.3 0.4 0.9 0.7 0 0.2-0.1 0.3 0 0.4 0.3 0.2 0.2-0.1 0.3-0.4 0.4-0.6-0.1-0.8 0.3-0.2 0.3 0.3-0.2 0.7 0.2 0.4 1.2 0.7 0.2 0.4 0.2 0.3 0.4 0.4 0.2 0.1 0.6 0.1 0.3 0.2 0.4 0.5 0.4 0.9-0.1 0.8-0.7 0.3 0.6 0.3 0.7-0.1 0.5 0.2 0.2 0.9z m-53.3 39.7l-0.1 1.4-0.8 1.2-1.3-0.1-0.7-1.7 1.1-1.1 1.6-0.7 0.2 1z m-278.1 200.3l0 0.1-0.1 0 0-0.1 0.1 0z m59.2 1.6l0.2 0 0.1 0.2-0.2 0.2-0.2-0.2 0.1-0.2z m-120.6-36.2l0.2 0.1-0.1 0.1-0.1 0 0-0.1 0-0.1z" id="ES" name="Spain">
  </path>
 </g>
 <g id="points">
  <circle class="28.449798919939386|-17.042010051327626" cx="90.9" cy="812.6" id="0">
  </circle>
  <circle class="34.91028065897241|-5.789853480226222" cx="545.5" cy="505.6" id="1">
  </circle>
  <circle class="42.98588283276368|3.2118717766549025" cx="909.1" cy="85.3" id="2">
  </circle>
 </g>
 <g id="label_points">
  <circle class="Spain" cx="639.4" cy="241.6" id="ES">
  </circle>
 </g>
</svg>